<svg width="36" height="36" viewBox="0 0 36 36" xmlns="http://www.w3.org/2000/svg">
<path d="M17.9859 2.68262C9.2918 2.6791 2.25 9.71738 2.25 18.4045C2.25 25.274 6.65508 31.1135 12.7898 33.258C13.616 33.4654 13.4895 32.8783 13.4895 32.4775V29.7529C8.71875 30.3119 8.52539 27.1549 8.20547 26.6275C7.55859 25.5236 6.0293 25.2424 6.48633 24.715C7.57266 24.1561 8.68008 24.8557 9.96328 26.7506C10.8914 28.1252 12.702 27.8932 13.6195 27.6646C13.8199 26.8385 14.2488 26.1002 14.8395 25.5271C9.89648 24.6412 7.83633 21.6248 7.83633 18.0389C7.83633 16.2986 8.40938 14.699 9.53438 13.4088C8.81719 11.2818 9.60117 9.46074 9.70664 9.19004C11.7492 9.00723 13.8727 10.6525 14.0379 10.7826C15.198 10.4697 16.5234 10.3045 18.007 10.3045C19.4977 10.3045 20.8266 10.4768 21.9973 10.7932C22.3945 10.4908 24.3633 9.07754 26.2617 9.24981C26.3637 9.52051 27.1301 11.2994 26.4551 13.3982C27.5941 14.692 28.1742 16.3057 28.1742 18.0494C28.1742 21.6424 26.1 24.6623 21.143 25.5342C21.5676 25.9517 21.9047 26.4497 22.1347 26.999C22.3646 27.5483 22.4829 28.1379 22.4824 28.7334V32.6885C22.5105 33.0049 22.4824 33.3178 23.0098 33.3178C29.2359 31.2189 33.7184 25.3373 33.7184 18.408C33.7184 9.71738 26.673 2.68262 17.9859 2.68262Z" fill="#667FFC" fill-opacity="0.85"/>
</svg>
